<svg enable-background="new 0 0 100 100" version="1.1" viewBox="0 0 100 100" x="0px" xml:space="preserve" xmlns:xlink="http://www.w3.org/1999/xlink" xmlns="http://www.w3.org/2000/svg" y="0px">
    <g>
        <path d="M10,16.8c0,0,11.7,18.7,29.6,20C39.6,36.8,3.6,62.4,10,16.8z"/>
        <path d="M90,16.2c0,0-11.7,18.7-29.6,20C60.4,36.1,96.4,61.7,90,16.2z"/>
        <path d="M73.1,66.2v3.4l-7.7,2.6l-1-3.9c-2.8,0.5-5.5,0.8-8.1,1l-0.4,6.3L48,74.9l-1-5.4c-3.7-0.2-7.2-0.6-10.4-1.1l-0.4,3.8 l-6.1-1.1l-1.4-4.4C22.4,64.9,18.6,63,18.6,63c6.2,8.5,12.2,13.9,17.9,17l0.6-3.1l9.7,3l-0.6,3.5c4.6,0.8,9,0.2,12.9-1.2l-0.5-2.4   l7.4-3.4l0.7,2C76.1,72.3,81.9,63,81.9,63C78.9,64.3,76,65.4,73.1,66.2z"/>
        <polygon points="50,49.6 44.9,55.9 48.8,55.9  "/>
        <polygon points="52.4,49.6 52.4,55.9 55.2,55.9  "/>
    </g>
</svg>